<svg>

<g transform="translate(360,360)">

<g class="link">
<line x1="0" y1="0" x2="12.269272292454922" y2="14.361583508457139">
</line>
</g>

<g class="link">
<line x1="12.269272292454922" y1="14.361583508457139" x2="24.538544584909843" y2="28.723167016914278">
</line>
</g>

<g class="node" transform="translate(0,0)">
  <circle r="5"></circle>
  <text dx="8" text-anchor="start" dy=".31em" transform="rotate(-40.507660505836554)" opacity="1">1</text>
</g>

<g class="node" transform="translate(12.269272292454922,14.361583508457139)">
<circle r="5">
</circle>
<text dx="8" text-anchor="start" dy=".31em" transform="rotate(-40.507660505836554)" opacity="1">2
</text>
</g>
i
<g class="link">
<line x1="24.538544584909843" y1="28.723167016914278" x2="36.807816877364765" y2="43.08475052537142">
</line>
</g>
<g class="node" transform="translate(24.538544584909843,28.723167016914278)">
<circle r="5">
</circle>
<text dx="8" text-anchor="start" dy=".31em" transform="rotate(-40.507660505836554)" opacity="1">4
</text>
</g>
<g class="link">
<line x1="36.807816877364765" y1="43.08475052537142" x2="49.077089169819686" y2="57.446334033828556">
</line>
</g>
<g class="node" transform="translate(36.807816877364765,43.08475052537142)">
<circle r="5">
</circle>
<text dx="8" text-anchor="start" dy=".31em" transform="rotate(-40.507660505836554)" opacity="1">8
</text>
</g>
<g class="link">
<line x1="49.077089169819686" y1="57.446334033828556" x2="71.44932506187092" y2="-61.76363845032818">
</line>
<line x1="49.077089169819686" y1="57.446334033828556" x2="-72.16407308552347" y2="60.92700256968974">
</line>
</g>
<g class="node" transform="translate(49.077089169819686,57.446334033828556)">
<circle r="5">
</circle>
<text dx="8" text-anchor="start" dy=".31em" transform="rotate(-40.507660505836554)" opacity="1">16
</text>
</g>
<g class="link">
<line x1="71.44932506187092" y1="-61.76363845032818" x2="85.7391900742451" y2="-74.11636614039382">
</line>
</g>
<g class="link">
<line x1="-72.16407308552347" y1="60.92700256968974" x2="-86.59688770262815" y2="73.11240308362768">
</line>
</g>
<g class="node" transform="translate(71.44932506187092,-61.76363845032818)">
<circle r="5">
</circle>
<text dx="-8" text-anchor="end" dy=".31em" transform="rotate(49.15856031128404)" opacity="1">5
</text>
</g>
<g class="node" transform="translate(-72.16407308552347,60.92700256968974)">
<circle r="5">
</circle>
<text dx="8" text-anchor="start" dy=".31em" transform="rotate(49.826118677042786)" opacity="1">32
</text>
</g>
<g class="link">
<line x1="85.7391900742451" y1="-74.11636614039382" x2="8.88293854614565" y2="-131.92349848365953">
</line>
<line x1="85.7391900742451" y1="-74.11636614039382" x2="131.82094127712796" y2="10.29346832679334">
</line>
</g>
<g class="link">
<line x1="-86.59688770262815" y1="73.11240308362768" x2="-28.06995932977125" y2="129.20833344876678">
</line>
<line x1="-86.59688770262815" y1="73.11240308362768" x2="-132.08562963469686" y2="6.008535045118069">
</line>
</g>
<g class="node" transform="translate(85.7391900742451,-74.11636614039382)">
<circle r="5">
</circle>
<text dx="-8" text-anchor="end" dy=".31em" transform="rotate(49.15856031128404)" opacity="1">10
</text>
</g>
<g class="node" transform="translate(-86.59688770262815,73.11240308362768)">
<circle r="5">
</circle>
<text dx="8" text-anchor="start" dy=".31em" transform="rotate(49.826118677042786)" opacity="1">64
</text>
</g>
<g class="link">
<line x1="8.88293854614565" y1="-131.92349848365953" x2="10.1519297670236" y2="-150.76971255275376">
</line>
</g>
<g class="link">
<line x1="131.82094127712796" y1="10.29346832679334" x2="150.65250431671765" y2="11.763963802049531">
</line>
</g>
<g class="link">
<line x1="-28.06995932977125" y1="129.20833344876678" x2="-32.079953519738574" y2="147.6666667985906">
</line>
</g>
<g class="link">
<line x1="-132.08562963469686" y1="6.008535045118069" x2="-150.9550052967964" y2="6.86689719442065">
</line>
</g>
<g class="node" transform="translate(8.88293854614565,-131.92349848365953)">
<circle r="5">
</circle>
<text dx="-8" text-anchor="end" dy=".31em" transform="rotate(3.8521400778210118)" opacity="1">3
</text>
</g>
<g class="node" transform="translate(131.82094127712796,10.29346832679334)">
<circle r="5">
</circle>
<text dx="8" text-anchor="start" dy=".31em" transform="rotate(-85.53501945525291)" opacity="1">20
</text>
</g>
<g class="node" transform="translate(-28.06995932977125,129.20833344876678)">
<circle r="5">
</circle>
<text dx="8" text-anchor="start" dy=".31em" transform="rotate(12.256809338521407)" opacity="1">21
</text>
</g>
<g class="node" transform="translate(-132.08562963469686,6.008535045118069)">
<circle r="5">
</circle>
<text dx="8" text-anchor="start" dy=".31em" transform="rotate(87.39542801556416)" opacity="1">128
</text>
</g>
<g class="link">
<line x1="10.1519297670236" y1="-150.76971255275376" x2="11.42092098790155" y2="-169.61592662184796">
</line>
</g>
<g class="link">
<line x1="150.65250431671765" y1="11.763963802049531" x2="127.75565969068161" y2="-112.15387383857389">
</line>
<line x1="150.65250431671765" y1="11.763963802049531" x2="108.79780345556671" y2="130.62556397292175">
</line>
</g>
<g class="link">
<line x1="-32.079953519738574" y1="147.6666667985906" x2="-36.089947709705896" y2="166.12500014841444">
</line>
</g>
<g class="link">
<line x1="-150.9550052967964" y1="6.86689719442065" x2="-115.91016581359332" y2="124.35768356263837">
</line>
<line x1="-150.9550052967964" y1="6.86689719442065" x2="-126.72207019035531" y2="-113.32041707772993">
</line>
</g>
<g class="node" transform="translate(10.1519297670236,-150.76971255275376)">
<circle r="5">
</circle>
<text dx="-8" text-anchor="end" dy=".31em" transform="rotate(3.8521400778210118)" opacity="1">6
</text>
</g>
<g class="node" transform="translate(150.65250431671765,11.763963802049531)">
<circle r="5">
</circle>
<text dx="8" text-anchor="start" dy=".31em" transform="rotate(-85.53501945525291)" opacity="1">40
</text>
</g>
<g class="node" transform="translate(-32.079953519738574,147.6666667985906)">
<circle r="5">
</circle>
<text dx="8" text-anchor="start" dy=".31em" transform="rotate(12.256809338521407)" opacity="1">42
</text>
</g>
<g class="node" transform="translate(-150.9550052967964,6.86689719442065)">
<circle r="5">
</circle>
<text dx="8" text-anchor="start" dy=".31em" transform="rotate(87.39542801556416)" opacity="1">256
</text>
</g>
<g class="link">
<line x1="11.42092098790155" y1="-169.61592662184796" x2="12.6899122087795" y2="-188.4621406909422">
</line>
</g>
<g class="link">
<line x1="127.75565969068161" y1="-112.15387383857389" x2="141.9507329896462" y2="-124.61541537619321">
</line>
</g>
<g class="link">
<line x1="108.79780345556671" y1="130.62556397292175" x2="120.88644828396302" y2="145.13951552546862">
</line>
</g>
<g class="link">
<line x1="-36.089947709705896" y1="166.12500014841444" x2="-40.09994189967321" y2="184.58333349823826">
</line>
</g>
<g class="link">
<line x1="-115.91016581359332" y1="124.35768356263837" x2="-128.78907312621482" y2="138.1752039584871">
</line>
</g>
<g class="link">
<line x1="-126.72207019035531" y1="-113.32041707772993" x2="-140.8023002115059" y2="-125.91157453081104">
</line>
</g>
<g class="node" transform="translate(11.42092098790155,-169.61592662184796)">
<circle r="5">
</circle>
<text dx="-8" text-anchor="end" dy=".31em" transform="rotate(3.8521400778210118)" opacity="1">12
</text>
</g>
<g class="node" transform="translate(127.75565969068161,-112.15387383857389)">
<circle r="5">
</circle>
<text dx="-8" text-anchor="end" dy=".31em" transform="rotate(48.72081712062256)" opacity="1">13
</text>
</g>
<g class="node" transform="translate(108.79780345556671,130.62556397292175)">
<circle r="5">
</circle>
<text dx="8" text-anchor="start" dy=".31em" transform="rotate(-39.79085603112841)" opacity="1">80
</text>
</g>
<g class="node" transform="translate(-36.089947709705896,166.12500014841444)">
<circle r="5">
</circle>
<text dx="8" text-anchor="start" dy=".31em" transform="rotate(12.256809338521407)" opacity="1">84
</text>
</g>
<g class="node" transform="translate(-115.91016581359332,124.35768356263837)">
<circle r="5">
</circle>
<text dx="8" text-anchor="start" dy=".31em" transform="rotate(42.986381322957214)" opacity="1">85
</text>
</g>
<g class="node" transform="translate(-126.72207019035531,-113.32041707772993)">
<circle r="5">
</circle>
<text dx="-8" text-anchor="end" dy=".31em" transform="rotate(311.8044747081712)" opacity="1">512
</text>
</g>
<g class="link">
<line x1="12.6899122087795" y1="-188.4621406909422" x2="13.95890342965745" y2="-207.30835476003642">
</line>
</g>
<g class="link">
<line x1="141.9507329896462" y1="-124.61541537619321" x2="156.14580628861086" y2="-137.07695691381255">
</line>
</g>
<g class="link">
<line x1="120.88644828396302" y1="145.13951552546862" x2="181.45566925863366" y2="101.21978577419026">
</line>
<line x1="120.88644828396302" y1="145.13951552546862" x2="66.73786930128125" y2="196.76804044203092">
</line>
</g>
<g class="link">
<line x1="-40.09994189967321" y1="184.58333349823826" x2="-44.10993608964054" y2="203.0416668480621">
</line>
</g>
<g class="link">
<line x1="-128.78907312621482" y1="138.1752039584871" x2="-141.6679804388363" y2="151.99272435433582">
</line>
</g>
<g class="link">
<line x1="-140.8023002115059" y1="-125.91157453081104" x2="-194.30156557093534" y2="-73.61050573766718">
</line>
<line x1="-140.8023002115059" y1="-125.91157453081104" x2="-94.78146749808329" y2="-184.90018484896493">
</line>
</g>
<g class="node" transform="translate(12.6899122087795,-188.4621406909422)">
<circle r="5">
</circle>
<text dx="-8" text-anchor="end" dy=".31em" transform="rotate(3.8521400778210118)" opacity="1">24
</text>
</g>
<g class="node" transform="translate(141.9507329896462,-124.61541537619321)">
<circle r="5">
</circle>
<text dx="-8" text-anchor="end" dy=".31em" transform="rotate(48.72081712062256)" opacity="1">26
</text>
</g>
<g class="node" transform="translate(120.88644828396302,145.13951552546862)">
<circle r="5">
</circle>
<text dx="8" text-anchor="start" dy=".31em" transform="rotate(-39.79085603112841)" opacity="1">160
</text>
</g>
<g class="node" transform="translate(-40.09994189967321,184.58333349823826)">
<circle r="5">
</circle>
<text dx="8" text-anchor="start" dy=".31em" transform="rotate(12.256809338521407)" opacity="1">168
</text>
</g>
<g class="node" transform="translate(-128.78907312621482,138.1752039584871)">
<circle r="5">
</circle>
<text dx="8" text-anchor="start" dy=".31em" transform="rotate(42.986381322957214)" opacity="1">170
</text>
</g>
<g class="node" transform="translate(-140.8023002115059,-125.91157453081104)">
<circle r="5">
</circle>
<text dx="-8" text-anchor="end" dy=".31em" transform="rotate(311.8044747081712)" opacity="1">1024
</text>
</g>
<g class="link">
<line x1="13.95890342965745" y1="-207.30835476003642" x2="15.227894650535399" y2="-226.1545688291306">
</line>
</g>
<g class="link">
<line x1="156.14580628861086" y1="-137.07695691381255" x2="113.13330965457816" y2="-196.4144394497999">
</line>
<line x1="156.14580628861086" y1="-137.07695691381255" x2="209.41269403589166" y2="-86.74157800275368">
</line>
</g>
<g class="link">
<line x1="181.45566925863366" y1="101.21978577419026" x2="197.95163919123667" y2="110.42158448093481">
</line>
</g>
<g class="link">
<line x1="66.73786930128125" y1="196.76804044203092" x2="72.80494832867043" y2="214.65604411857916">
</line>
</g>
<g class="link">
<line x1="-44.10993608964054" y1="203.0416668480621" x2="-48.11993027960786" y2="221.5000001978859">
</line>
</g>
<g class="link">
<line x1="-141.6679804388363" y1="151.99272435433582" x2="-102.47223875969209" y2="202.1811515976562">
</line>
<line x1="-141.6679804388363" y1="151.99272435433582" x2="-194.48522520103697" y2="116.418533560081">
</line>
</g>
<g class="link">
<line x1="-194.30156557093534" y1="-73.61050573766718" x2="-211.96534425920214" y2="-80.30236989563691">
</line>
</g>
<g class="link">
<line x1="-94.78146749808329" y1="-184.90018484896493" x2="-103.39796454336357" y2="-201.70929256250716">
</line>
</g>
<g class="node" transform="translate(13.95890342965745,-207.30835476003642)">
<circle r="5">
</circle>
<text dx="-8" text-anchor="end" dy=".31em" transform="rotate(3.8521400778210118)" opacity="1">48
</text>
</g>
<g class="node" transform="translate(156.14580628861086,-137.07695691381255)">
<circle r="5">
</circle>
<text dx="-8" text-anchor="end" dy=".31em" transform="rotate(48.72081712062256)" opacity="1">52
</text>
</g>
<g class="node" transform="translate(181.45566925863366,101.21978577419026)">
<circle r="5">
</circle>
<text dx="8" text-anchor="start" dy=".31em" transform="rotate(-60.84630350194553)" opacity="1">53
</text>
</g>
<g class="node" transform="translate(66.73786930128125,196.76804044203092)">
<circle r="5">
</circle>
<text dx="8" text-anchor="start" dy=".31em" transform="rotate(-18.73540856031127)" opacity="1">320
</text>
</g>
<g class="node" transform="translate(-44.10993608964054,203.0416668480621)">
<circle r="5">
</circle>
<text dx="8" text-anchor="start" dy=".31em" transform="rotate(12.256809338521407)" opacity="1">336
</text>
</g>
<g class="node" transform="translate(-141.6679804388363,151.99272435433582)">
<circle r="5">
</circle>
<text dx="8" text-anchor="start" dy=".31em" transform="rotate(42.986381322957214)" opacity="1">340
</text>
</g>
<g class="node" transform="translate(-194.30156557093534,-73.61050573766718)">
<circle r="5">
</circle>
<text dx="-8" text-anchor="end" dy=".31em" transform="rotate(290.7490272373541)" opacity="1">341
</text>
</g>
<g class="node" transform="translate(-94.78146749808329,-184.90018484896493)">
<circle r="5">
</circle>
<text dx="-8" text-anchor="end" dy=".31em" transform="rotate(332.85992217898837)" opacity="1">2048
</text>
</g>
<g class="link">
<line x1="15.227894650535399" y1="-226.1545688291306" x2="16.496885871413348" y2="-245.00078289822483">
</line>
</g>
<g class="link">
<line x1="113.13330965457816" y1="-196.4144394497999" x2="122.56108545912635" y2="-212.78230940394985">
</line>
</g>
<g class="link">
<line x1="209.41269403589166" y1="-86.74157800275368" x2="226.86375187221594" y2="-93.97004283631648">
</line>
</g>
<g class="link">
<line x1="197.95163919123667" y1="110.42158448093481" x2="236.3260427588709" y2="66.6898221479848">
</line>
<line x1="197.95163919123667" y1="110.42158448093481" x2="180.90165335719018" y2="166.04855517839513">
</line>
</g>
<g class="link">
<line x1="72.80494832867043" y1="214.65604411857916" x2="119.29556514745371" y2="214.6301446683274">
</line>
<line x1="72.80494832867043" y1="214.65604411857916" x2="35.891295739982525" y2="242.9183931988326">
</line>
</g>
<g class="link">
<line x1="-48.11993027960786" y1="221.5000001978859" x2="-52.12992446957518" y2="239.9583335477097">
</line>
</g>
<g class="link">
<line x1="-102.47223875969209" y1="202.1811515976562" x2="-111.01159198966643" y2="219.02958089746087">
</line>
</g>
<g class="link">
<line x1="-194.48522520103697" y1="116.418533560081" x2="-210.69232730112338" y2="126.12007802342109">
</line>
</g>
<g class="link">
<line x1="-211.96534425920214" y1="-80.30236989563691" x2="-243.5356291259064" y2="-31.431325305282552">
</line>
<line x1="-211.96534425920214" y1="-80.30236989563691" x2="-203.22910898407642" y2="-137.8240186822889">
</line>
</g>
<g class="link">
<line x1="-103.39796454336357" y1="-201.70929256250716" x2="-149.38550632821293" y2="-194.88843311818425">
</line>
<line x1="-103.39796454336357" y1="-201.70929256250716" x2="-71.01167694011389" y2="-235.0635501355972">
</line>
</g>
<g class="node" transform="translate(15.227894650535399,-226.1545688291306)">
<circle r="5">
</circle>
<text dx="-8" text-anchor="end" dy=".31em" transform="rotate(3.8521400778210118)" opacity="1">96
</text>
</g>
<g class="node" transform="translate(113.13330965457816,-196.4144394497999)">
<circle r="5">
</circle>
<text dx="-8" text-anchor="end" dy=".31em" transform="rotate(29.941634241245136)" opacity="1">17
</text>
</g>
<g class="node" transform="translate(209.41269403589166,-86.74157800275368)">
<circle r="5">
</circle>
<text dx="-8" text-anchor="end" dy=".31em" transform="rotate(67.5)" opacity="1">104
</text>
</g>
<g class="node" transform="translate(197.95163919123667,110.42158448093481)">
<circle r="5">
</circle>
<text dx="8" text-anchor="start" dy=".31em" transform="rotate(-60.84630350194553)" opacity="1">106
</text>
</g>
<g class="node" transform="translate(72.80494832867043,214.65604411857916)">
<circle r="5">
</circle>
<text dx="8" text-anchor="start" dy=".31em" transform="rotate(-18.73540856031127)" opacity="1">640
</text>
</g>
<g class="node" transform="translate(-48.11993027960786,221.5000001978859)">
<circle r="5">
</circle>
<text dx="8" text-anchor="start" dy=".31em" transform="rotate(12.256809338521407)" opacity="1">672
</text>
</g>
<g class="node" transform="translate(-102.47223875969209,202.1811515976562)">
<circle r="5">
</circle>
<text dx="8" text-anchor="start" dy=".31em" transform="rotate(26.87743190661476)" opacity="1">113
</text>
</g>
<g class="node" transform="translate(-194.48522520103697,116.418533560081)">
<circle r="5">
</circle>
<text dx="8" text-anchor="start" dy=".31em" transform="rotate(59.09533073929961)" opacity="1">680
</text>
</g>
<g class="node" transform="translate(-211.96534425920214,-80.30236989563691)">
<circle r="5">
</circle>
<text dx="-8" text-anchor="end" dy=".31em" transform="rotate(290.7490272373541)" opacity="1">682
</text>
</g>
<g class="node" transform="translate(-103.39796454336357,-201.70929256250716)">
<circle r="5">
</circle>
<text dx="-8" text-anchor="end" dy=".31em" transform="rotate(332.85992217898837)" opacity="1">4096
</text>
</g>
<g class="link">
<line x1="16.496885871413348" y1="-245.00078289822483" x2="17.7658770922913" y2="-263.84699696731906">
</line>
</g>
<g class="link">
<line x1="122.56108545912635" y1="-212.78230940394985" x2="80.33312709596129" y2="-251.94732165378343">
</line>
<line x1="122.56108545912635" y1="-212.78230940394985" x2="177.6274563983561" y2="-195.90648516825823">
</line>
</g>
<g class="link">
<line x1="226.86375187221594" y1="-93.97004283631648" x2="230.3506154075819" y2="-129.8824783366839">
</line>
<line x1="226.86375187221594" y1="-93.97004283631648" x2="254.72326339437961" y2="-71.04170101601152">
</line>
</g>
<g class="link">
<line x1="236.3260427588709" y1="66.6898221479848" x2="254.50496912493793" y2="71.81980846706057">
</line>
</g>
<g class="link">
<line x1="180.90165335719018" y1="166.04855517839513" x2="194.81716515389712" y2="178.82152096134863">
</line>
</g>
<g class="link">
<line x1="119.29556514745371" y1="214.6301446683274" x2="128.47214708187326" y2="231.1401557966603">
</line>
</g>
<g class="link">
<line x1="35.891295739982525" y1="242.9183931988326" x2="38.65216464305811" y2="261.60442344489667">
</line>
</g>
<g class="link">
<line x1="-52.12992446957518" y1="239.9583335477097" x2="-56.1399186595425" y2="258.41666689753356">
</line>
</g>
<g class="link">
<line x1="-111.01159198966643" y1="219.02958089746087" x2="-90.27654789305541" y2="248.5578586527566">
</line>
<line x1="-111.01159198966643" y1="219.02958089746087" x2="-147.08540646948833" y2="219.76520971536024">
</line>
</g>
<g class="link">
<line x1="-210.69232730112338" y1="126.12007802342109" x2="-208.89265082883904" y2="162.15648191556085">
</line>
<line x1="-210.69232730112338" y1="126.12007802342109" x2="-241.60392958271387" y2="107.51002468477957">
</line>
</g>
<g class="link">
<line x1="-243.5356291259064" y1="-31.431325305282552" x2="-262.2691390586685" y2="-33.849119559535055">
</line>
</g>
<g class="link">
<line x1="-203.22910898407642" y1="-137.8240186822889" x2="-218.86211736746694" y2="-148.42586627323422">
</line>
</g>
<g class="link">
<line x1="-149.38550632821293" y1="-194.88843311818425" x2="-160.87669912269087" y2="-209.8798510503523">
</line>
</g>
<g class="link">
<line x1="-71.01167694011389" y1="-235.0635501355972" x2="-76.47411362781496" y2="-253.14536168448933">
</line>
</g>
<g class="node" transform="translate(16.496885871413348,-245.00078289822483)">
<circle r="5">
</circle>
<text dx="-8" text-anchor="end" dy=".31em" transform="rotate(3.8521400778210118)" opacity="1">192
</text>
</g>
<g class="node" transform="translate(122.56108545912635,-212.78230940394985)">
<circle r="5">
</circle>
<text dx="-8" text-anchor="end" dy=".31em" transform="rotate(29.941634241245136)" opacity="1">34
</text>
</g>
<g class="node" transform="translate(226.86375187221594,-93.97004283631648)">
<circle r="5">
</circle>
<text dx="-8" text-anchor="end" dy=".31em" transform="rotate(67.5)" opacity="1">208
</text>
</g>
<g class="node" transform="translate(236.3260427588709,66.6898221479848)">
<circle r="5">
</circle>
<text dx="8" text-anchor="start" dy=".31em" transform="rotate(-74.24124513618676)" opacity="1">35
</text>
</g>
<g class="node" transform="translate(180.90165335719018,166.04855517839513)">
<circle r="5">
</circle>
<text dx="8" text-anchor="start" dy=".31em" transform="rotate(-47.451361867704264)" opacity="1">212
</text>
</g>
<g class="node" transform="translate(119.29556514745371,214.6301446683274)">
<circle r="5">
</circle>
<text dx="8" text-anchor="start" dy=".31em" transform="rotate(-29.066147859922182)" opacity="1">213
</text>
</g>
<g class="node" transform="translate(35.891295739982525,242.9183931988326)">
<circle r="5">
</circle>
<text dx="8" text-anchor="start" dy=".31em" transform="rotate(-8.404669260700388)" opacity="1">1280
</text>
</g>
<g class="node" transform="translate(-52.12992446957518,239.9583335477097)">
<circle r="5">
</circle>
<text dx="8" text-anchor="start" dy=".31em" transform="rotate(12.256809338521407)" opacity="1">1344
</text>
</g>
<g class="node" transform="translate(-111.01159198966643,219.02958089746087)">
<circle r="5">
</circle>
<text dx="8" text-anchor="start" dy=".31em" transform="rotate(26.87743190661476)" opacity="1">226
</text>
</g>
<g class="node" transform="translate(-210.69232730112338,126.12007802342109)">
<circle r="5">
</circle>
<text dx="8" text-anchor="start" dy=".31em" transform="rotate(59.09533073929961)" opacity="1">1360
</text>
</g>
<g class="node" transform="translate(-243.5356291259064,-31.431325305282552)">
<circle r="5">
</circle>
<text dx="-8" text-anchor="end" dy=".31em" transform="rotate(277.3540856031129)" opacity="1">227
</text>
</g>
<g class="node" transform="translate(-203.22910898407642,-137.8240186822889)">
<circle r="5">
</circle>
<text dx="-8" text-anchor="end" dy=".31em" transform="rotate(304.14396887159535)" opacity="1">1364
</text>
</g>
<g class="node" transform="translate(-149.38550632821293,-194.88843311818425)">
<circle r="5">
</circle>
<text dx="-8" text-anchor="end" dy=".31em" transform="rotate(322.52918287937746)" opacity="1">1365
</text>
</g>
<g class="node" transform="translate(-71.01167694011389,-235.0635501355972)">
<circle r="5">
</circle>
<text dx="-8" text-anchor="end" dy=".31em" transform="rotate(343.1906614785992)" opacity="1">8192
</text>
</g>
<g class="link">
<line x1="17.7658770922913" y1="-263.84699696731906" x2="19.03486831316925" y2="-282.6932110364133">
</line>
</g>
<g class="link">
<line x1="80.33312709596129" y1="-251.94732165378343" x2="86.07120760281566" y2="-269.94355891476795">
</line>
</g>
<g class="link">
<line x1="177.6274563983561" y1="-195.90648516825823" x2="190.31513185538154" y2="-209.89980553741955">
</line>
</g>
<g class="link">
<line x1="230.3506154075819" y1="-129.8824783366839" x2="246.80423079383777" y2="-139.15979821787562">
</line>
</g>
<g class="link">
<line x1="254.72326339437961" y1="-71.04170101601152" x2="272.91778220826393" y2="-76.1161082314409">
</line>
</g>
<g class="link">
<line x1="254.50496912493793" y1="71.81980846706057" x2="281.00264899143053" y2="36.26691381378726">
</line>
<line x1="254.50496912493793" y1="71.81980846706057" x2="258.50812358310327" y2="115.97985954173595">
</line>
</g>
<g class="link">
<line x1="194.81716515389712" y1="178.82152096134863" x2="227.9938529551123" y2="168.21587556607267">
</line>
<line x1="194.81716515389712" y1="178.82152096134863" x2="187.08574531108016" y2="212.78322696861105">
</line>
</g>
<g class="link">
<line x1="128.47214708187326" y1="231.1401557966603" x2="137.64872901629278" y2="247.65016692499321">
</line>
</g>
<g class="link">
<line x1="38.65216464305811" y1="261.60442344489667" x2="81.93655031551612" y2="271.22717323338145">
</line>
<line x1="38.65216464305811" y1="261.60442344489667" x2="1.7763568394002505e-14" y2="283.33333333333337">
</line>
</g>
<g class="link">
<line x1="-56.1399186595425" y1="258.41666689753356" x2="-60.14991284950983" y2="276.87500024735743">
</line>
</g>
<g class="link">
<line x1="-90.27654789305541" y1="248.5578586527566" x2="-96.72487274255938" y2="266.31199141366784">
</line>
</g>
<g class="link">
<line x1="-147.08540646948833" y1="219.76520971536024" x2="-157.59150693159467" y2="235.46272469502884">
</line>
</g>
<g class="link">
<line x1="-208.89265082883904" y1="162.15648191556085" x2="-223.81355445947042" y2="173.73908776667233">
</line>
</g>
<g class="link">
<line x1="-241.60392958271387" y1="107.51002468477957" x2="-258.8613531243363" y2="115.18931216226383">
</line>
</g>
<g class="link">
<line x1="-262.2691390586685" y1="-33.849119559535055" x2="-283.2857043266646" y2="5.194949655519309">
</line>
<line x1="-262.2691390586685" y1="-33.849119559535055" x2="-272.68389549100493" y2="-76.94979478613637">
</line>
</g>
<g class="link">
<line x1="-218.86211736746694" y1="-148.42586627323422" x2="-250.13234181652464" y2="-133.08489529303873">
</line>
<line x1="-218.86211736746694" y1="-148.42586627323422" x2="-216.1776965253877" y2="-183.15289051160286">
</line>
</g>
<g class="link">
<line x1="-160.87669912269087" y1="-209.8798510503523" x2="-172.3678919171688" y2="-224.87126898252035">
</line>
</g>
<g class="link">
<line x1="-76.47411362781496" y1="-253.14536168448933" x2="-120.70013959604188" y2="-256.33816352481307">
</line>
<line x1="-76.47411362781496" y1="-253.14536168448933" x2="-41.41303354613378" y2="-280.2904536909607">
</line>
</g>
<g class="node" transform="translate(17.7658770922913,-263.84699696731906)">
<circle r="5">
</circle>
<text dx="-8" text-anchor="end" dy=".31em" transform="rotate(3.8521400778210118)" opacity="1">384
</text>
</g>
<g class="node" transform="translate(80.33312709596129,-251.94732165378343)">
<circle r="5">
</circle>
<text dx="-8" text-anchor="end" dy=".31em" transform="rotate(17.684824902723737)" opacity="1">11
</text>
</g>
<g class="node" transform="translate(177.6274563983561,-195.90648516825823)">
<circle r="5">
</circle>
<text dx="-8" text-anchor="end" dy=".31em" transform="rotate(42.19844357976654)" opacity="1">68
</text>
</g>
<g class="node" transform="translate(230.3506154075819,-129.8824783366839)">
<circle r="5">
</circle>
<text dx="-8" text-anchor="end" dy=".31em" transform="rotate(60.58365758754864)" opacity="1">69
</text>
</g>
<g class="node" transform="translate(254.72326339437961,-71.04170101601152)">
<circle r="5">
</circle>
<text dx="-8" text-anchor="end" dy=".31em" transform="rotate(74.41634241245136)" opacity="1">416
</text>
</g>
<g class="node" transform="translate(254.50496912493793,71.81980846706057)">
<circle r="5">
</circle>
<text dx="8" text-anchor="start" dy=".31em" transform="rotate(-74.24124513618676)" opacity="1">70
</text>
</g>
<g class="node" transform="translate(194.81716515389712,178.82152096134863)">
<circle r="5">
</circle>
<text dx="8" text-anchor="start" dy=".31em" transform="rotate(-47.451361867704264)" opacity="1">424
</text>
</g>
<g class="node" transform="translate(128.47214708187326,231.1401557966603)">
<circle r="5">
</circle>
<text dx="8" text-anchor="start" dy=".31em" transform="rotate(-29.066147859922182)" opacity="1">426
</text>
</g>
<g class="node" transform="translate(38.65216464305811,261.60442344489667)">
<circle r="5">
</circle>
<text dx="8" text-anchor="start" dy=".31em" transform="rotate(-8.404669260700388)" opacity="1">2560
</text>
</g>
<g class="node" transform="translate(-56.1399186595425,258.41666689753356)">
<circle r="5">
</circle>
<text dx="8" text-anchor="start" dy=".31em" transform="rotate(12.256809338521407)" opacity="1">2688
</text>
</g>
<g class="node" transform="translate(-90.27654789305541,248.5578586527566)">
<circle r="5">
</circle>
<text dx="8" text-anchor="start" dy=".31em" transform="rotate(19.961089494163446)" opacity="1">75
</text>
</g>
<g class="node" transform="translate(-147.08540646948833,219.76520971536024)">
<circle r="5">
</circle>
<text dx="8" text-anchor="start" dy=".31em" transform="rotate(33.79377431906616)" opacity="1">452
</text>
</g>
<g class="node" transform="translate(-208.89265082883904,162.15648191556085)">
<circle r="5">
</circle>
<text dx="8" text-anchor="start" dy=".31em" transform="rotate(52.17898832684827)" opacity="1">453
</text>
</g>
<g class="node" transform="translate(-241.60392958271387,107.51002468477957)">
<circle r="5">
</circle>
<text dx="8" text-anchor="start" dy=".31em" transform="rotate(66.01167315175098)" opacity="1">2720
</text>
</g>
<g class="node" transform="translate(-262.2691390586685,-33.849119559535055)">
<circle r="5">
</circle>
<text dx="-8" text-anchor="end" dy=".31em" transform="rotate(277.3540856031129)" opacity="1">454
</text>
</g>
<g class="node" transform="translate(-218.86211736746694,-148.42586627323422)">
<circle r="5">
</circle>
<text dx="-8" text-anchor="end" dy=".31em" transform="rotate(304.14396887159535)" opacity="1">2728
</text>
</g>
<g class="node" transform="translate(-160.87669912269087,-209.8798510503523)">
<circle r="5">
</circle>
<text dx="-8" text-anchor="end" dy=".31em" transform="rotate(322.52918287937746)" opacity="1">2730
</text>
</g>
<g class="node" transform="translate(-76.47411362781496,-253.14536168448933)">
<circle r="5">
</circle>
<text dx="-8" text-anchor="end" dy=".31em" transform="rotate(343.1906614785992)" opacity="1">16384
</text>
</g>
<g class="link">
<line x1="19.03486831316925" y1="-282.6932110364133" x2="20.3038595340472" y2="-301.5394251055075">
</line>
</g>
<g class="link">
<line x1="86.07120760281566" y1="-269.94355891476795" x2="60.54502034846296" y2="-296.0955455861207">
</line>
<line x1="86.07120760281566" y1="-269.94355891476795" x2="122.02420159796537" y2="-276.4929760940002">
</line>
</g>
<g class="link">
<line x1="190.31513185538154" y1="-209.89980553741955" x2="177.9405150465034" y2="-244.2855802333068">
</line>
<line x1="190.31513185538154" y1="-209.89980553741955" x2="225.7448347374384" y2="-200.94163628851265">
</line>
</g>
<g class="link">
<line x1="246.80423079383777" y1="-139.15979821787562" x2="263.2578461800936" y2="-148.43711809906733">
</line>
</g>
<g class="link">
<line x1="272.91778220826393" y1="-76.1161082314409" x2="280.7809789022279" y2="-111.80480084345635">
</line>
<line x1="272.91778220826393" y1="-76.1161082314409" x2="298.1162916349352" y2="-49.64824535441872">
</line>
</g>
<g class="link">
<line x1="281.00264899143053" y1="36.26691381378726" x2="299.7361589241926" y2="38.68470806803974">
</line>
</g>
<g class="link">
<line x1="258.50812358310327" y1="115.97985954173595" x2="275.74199848864345" y2="123.71185017785166">
</line>
</g>
<g class="link">
<line x1="227.9938529551123" y1="168.21587556607267" x2="243.19344315211976" y2="179.4302672704775">
</line>
</g>
<g class="link">
<line x1="187.08574531108016" y1="212.78322696861105" x2="199.55812833181884" y2="226.9687754331851">
</line>
</g>
<g class="link">
<line x1="137.64872901629278" y1="247.65016692499321" x2="146.8253109507123" y2="264.16017805332604">
</line>
</g>
<g class="link">
<line x1="81.93655031551612" y1="271.22717323338145" x2="87.39898700321719" y2="289.3089847822735">
</line>
</g>
<g class="link">
<line x1="1.7763568394002505e-14" y1="283.33333333333337" x2="1.865174681370263e-14" y2="302.22222222222223">
</line>
</g>
<g class="link">
<line x1="-60.14991284950983" y1="276.87500024735743" x2="-64.15990703947715" y2="295.3333335971812">
</line>
</g>
<g class="link">
<line x1="-96.72487274255938" y1="266.31199141366784" x2="-103.17319759206333" y2="284.066124174579">
</line>
</g>
<g class="link">
<line x1="-157.59150693159467" y1="235.46272469502884" x2="-140.32383798829045" y2="267.67049164443637">
</line>
<line x1="-157.59150693159467" y1="235.46272469502884" x2="-193.95006855005784" y2="231.77929699256174">
</line>
</g>
<g class="link">
<line x1="-223.81355445947042" y1="173.73908776667233" x2="-238.73445809010175" y2="185.3216936177838">
</line>
</g>
<g class="link">
<line x1="-258.8613531243363" y1="115.18931216226383" x2="-261.4237129282894" y2="151.6440368881204">
</line>
<line x1="-258.8613531243363" y1="115.18931216226383" x2="-287.65788065171824" y2="92.68880894638843">
</line>
</g>
<g class="link">
<line x1="-283.2857043266646" y1="5.194949655519309" x2="-302.1714179484422" y2="5.54127963255393">
</line>
</g>
<g class="link">
<line x1="-272.68389549100493" y1="-76.94979478613637" x2="-290.8628218570719" y2="-82.07978110521212">
</line>
</g>
<g class="link">
<line x1="-250.13234181652464" y1="-133.08489529303873" x2="-266.8078312709596" y2="-141.95722164590796">
</line>
</g>
<g class="link">
<line x1="-216.1776965253877" y1="-183.15289051160286" x2="-230.58954296041352" y2="-195.36308321237635">
</line>
</g>
<g class="link">
<line x1="-172.3678919171688" y1="-224.87126898252035" x2="-183.85908471164672" y2="-239.86268691468834">
</line>
</g>
<g class="link">
<line x1="-120.70013959604188" y1="-256.33816352481307" x2="-128.74681556911133" y2="-273.4273744264672">
</line>
</g>
<g class="link">
<line x1="-41.41303354613378" y1="-280.2904536909607" x2="-44.173902449209365" y2="-298.97648393702474">
</line>
</g>
<g class="node" transform="translate(19.03486831316925,-282.6932110364133)">
<circle r="5">
</circle>
<text dx="-8" text-anchor="end" dy=".31em" transform="rotate(3.8521400778210118)" opacity="1">768
</text>
</g>
<g class="node" transform="translate(86.07120760281566,-269.94355891476795)">
<circle r="5">
</circle>
<text dx="-8" text-anchor="end" dy=".31em" transform="rotate(17.684824902723737)" opacity="1">22
</text>
</g>
<g class="node" transform="translate(190.31513185538154,-209.89980553741955)">
<circle r="5">
</circle>
<text dx="-8" text-anchor="end" dy=".31em" transform="rotate(42.19844357976654)" opacity="1">136
</text>
</g>
<g class="node" transform="translate(246.80423079383777,-139.15979821787562)">
<circle r="5">
</circle>
<text dx="-8" text-anchor="end" dy=".31em" transform="rotate(60.58365758754864)" opacity="1">138
</text>
</g>
<g class="node" transform="translate(272.91778220826393,-76.1161082314409)">
<circle r="5">
</circle>
<text dx="-8" text-anchor="end" dy=".31em" transform="rotate(74.41634241245136)" opacity="1">832
</text>
</g>
<g class="node" transform="translate(281.00264899143053,36.26691381378726)">
<circle r="5">
</circle>
<text dx="8" text-anchor="start" dy=".31em" transform="rotate(-82.64591439688716)" opacity="1">23
</text>
</g>
<g class="node" transform="translate(258.50812358310327,115.97985954173595)">
<circle r="5">
</circle>
<text dx="8" text-anchor="start" dy=".31em" transform="rotate(-65.83657587548639)" opacity="1">140
</text>
</g>
<g class="node" transform="translate(227.9938529551123,168.21587556607267)">
<circle r="5">
</circle>
<text dx="8" text-anchor="start" dy=".31em" transform="rotate(-53.579766536964996)" opacity="1">141
</text>
</g>
<g class="node" transform="translate(187.08574531108016,212.78322696861105)">
<circle r="5">
</circle>
<text dx="8" text-anchor="start" dy=".31em" transform="rotate(-41.32295719844356)" opacity="1">848
</text>
</g>
<g class="node" transform="translate(137.64872901629278,247.65016692499321)">
<circle r="5">
</circle>
<text dx="8" text-anchor="start" dy=".31em" transform="rotate(-29.066147859922182)" opacity="1">852
</text>
</g>
<g class="node" transform="translate(81.93655031551612,271.22717323338145)">
<circle r="5">
</circle>
<text dx="8" text-anchor="start" dy=".31em" transform="rotate(-16.809338521400775)" opacity="1">853
</text>
</g>
<g class="node" transform="translate(1.7763568394002505e-14,283.33333333333337)">
<circle r="5">
</circle>
<text dx="8" text-anchor="start" dy=".31em" transform="rotate(0)" opacity="1">5120
</text>
</g>
<g class="node" transform="translate(-60.14991284950983,276.87500024735743)">
<circle r="5">
</circle>
<text dx="8" text-anchor="start" dy=".31em" transform="rotate(12.256809338521407)" opacity="1">5376
</text>
</g>
<g class="node" transform="translate(-96.72487274255938,266.31199141366784)">
<circle r="5">
</circle>
<text dx="8" text-anchor="start" dy=".31em" transform="rotate(19.961089494163446)" opacity="1">150
</text>
</g>
<g class="node" transform="translate(-157.59150693159467,235.46272469502884)">
<circle r="5">
</circle>
<text dx="8" text-anchor="start" dy=".31em" transform="rotate(33.79377431906616)" opacity="1">904
</text>
</g>
<g class="node" transform="translate(-223.81355445947042,173.73908776667233)">
<circle r="5">
</circle>
<text dx="8" text-anchor="start" dy=".31em" transform="rotate(52.17898832684827)" opacity="1">906
</text>
</g>
<g class="node" transform="translate(-258.8613531243363,115.18931216226383)">
<circle r="5">
</circle>
<text dx="8" text-anchor="start" dy=".31em" transform="rotate(66.01167315175098)" opacity="1">5440
</text>
</g>
<g class="node" transform="translate(-283.2857043266646,5.194949655519309)">
<circle r="5">
</circle>
<text dx="8" text-anchor="start" dy=".31em" transform="rotate(88.94941634241246)" opacity="1">151
</text>
</g>
<g class="node" transform="translate(-272.68389549100493,-76.94979478613637)">
<circle r="5">
</circle>
<text dx="-8" text-anchor="end" dy=".31em" transform="rotate(285.75875486381324)" opacity="1">908
</text>
</g>
<g class="node" transform="translate(-250.13234181652464,-133.08489529303873)">
<circle r="5">
</circle>
<text dx="-8" text-anchor="end" dy=".31em" transform="rotate(298.0155642023346)" opacity="1">909
</text>
</g>
<g class="node" transform="translate(-216.1776965253877,-183.15289051160286)">
<circle r="5">
</circle>
<text dx="-8" text-anchor="end" dy=".31em" transform="rotate(310.27237354085605)" opacity="1">5456
</text>
</g>
<g class="node" transform="translate(-172.3678919171688,-224.87126898252035)">
<circle r="5">
</circle>
<text dx="-8" text-anchor="end" dy=".31em" transform="rotate(322.52918287937746)" opacity="1">5460
</text>
</g>
<g class="node" transform="translate(-120.70013959604188,-256.33816352481307)">
<circle r="5">
</circle>
<text dx="-8" text-anchor="end" dy=".31em" transform="rotate(334.78599221789887)" opacity="1">5461
</text>
</g>
<g class="node" transform="translate(-41.41303354613378,-280.2904536909607)">
<circle r="5">
</circle>
<text dx="-8" text-anchor="end" dy=".31em" transform="rotate(351.5953307392996)" opacity="1">32768
</text>
</g>
<g class="link">
<line x1="20.3038595340472" y1="-301.5394251055075" x2="21.57285075492515" y2="-320.3856391746017">
</line>
</g>
<g class="link">
<line x1="60.54502034846296" y1="-296.0955455861207" x2="64.3290841202419" y2="-314.6015171852532">
</line>
</g>
<g class="link">
<line x1="122.02420159796537" y1="-276.4929760940002" x2="129.6507141978382" y2="-293.7737870998752">
</line>
</g>
<g class="link">
<line x1="177.9405150465034" y1="-244.2855802333068" x2="189.06179723690985" y2="-259.55342899788843">
</line>
</g>
<g class="link">
<line x1="225.7448347374384" y1="-200.94163628851265" x2="239.85388690852827" y2="-213.5004885565447">
</line>
</g>
<g class="link">
<line x1="263.2578461800936" y1="-148.43711809906733" x2="279.71146156634944" y2="-157.71443798025902">
</line>
</g>
<g class="link">
<line x1="280.7809789022279" y1="-111.80480084345635" x2="298.32979008361707" y2="-118.79260089617236">
</line>
</g>
<g class="link">
<line x1="298.1162916349352" y1="-49.64824535441872" x2="316.7485598621186" y2="-52.75126068906989">
</line>
</g>
<g class="link">
<line x1="299.7361589241926" y1="38.68470806803974" x2="320.7273223176124" y2="15.69491631028071">
</line>
<line x1="299.7361589241926" y1="38.68470806803974" x2="314.20246089899763" y2="66.25073013957054">
</line>
</g>
<g class="link">
<line x1="275.74199848864345" y1="123.71185017785166" x2="302.48462721516165" y2="107.7747464739167">
</line>
<line x1="275.74199848864345" y1="123.71185017785166" x2="281.6184317967761" y2="154.2835200251047">
</line>
</g>
<g class="link">
<line x1="243.19344315211976" y1="179.4302672704775" x2="258.3930333491272" y2="190.6446589748823">
</line>
</g>
<g class="link">
<line x1="199.55812833181884" y1="226.9687754331851" x2="230.50270413260984" y2="223.5639708597225">
</line>
<line x1="199.55812833181884" y1="226.9687754331851" x2="192.2203987976568" y2="257.22298490819617">
</line>
</g>
<g class="link">
<line x1="146.8253109507123" y1="264.16017805332604" x2="156.00189288513178" y2="280.6701891816589">
</line>
</g>
<g class="link">
<line x1="87.39898700321719" y1="289.3089847822735" x2="92.86142369091824" y2="307.3907963311656">
</line>
</g>
<g class="link">
<line x1="1.865174681370263e-14" y1="302.22222222222223" x2="25.487566225877334" y2="320.0980000670011">
</line>
<line x1="1.865174681370263e-14" y1="302.22222222222223" x2="-25.487566225877224" y2="320.0980000670011">
</line>
</g>
<g class="link">
<line x1="-64.15990703947715" y1="295.3333335971812" x2="-68.16990122944446" y2="313.791666947005">
</line>
</g>
<g class="link">
<line x1="-103.17319759206333" y1="284.066124174579" x2="-109.62152244156728" y2="301.82025693549014">
</line>
</g>
<g class="link">
<line x1="-140.32383798829045" y1="267.67049164443637" x2="-149.09407786255858" y2="284.3998973722136">
</line>
</g>
<g class="link">
<line x1="-193.95006855005784" y1="231.77929699256174" x2="-206.07194783443643" y2="246.26550305459682">
</line>
</g>
<g class="link">
<line x1="-238.73445809010175" y1="185.3216936177838" x2="-253.65536172073308" y2="196.90429946889526">
</line>
</g>
<g class="link">
<line x1="-261.4237129282894" y1="151.6440368881204" x2="-277.76269498630745" y2="161.12178919362793">
</line>
</g>
<g class="link">
<line x1="-287.65788065171824" y1="92.68880894638843" x2="-305.63649819245063" y2="98.4818595055377">
</line>
</g>
<g class="link">
<line x1="-302.1714179484422" y1="5.54127963255393" x2="-321.0571315702198" y2="5.8876096095885515">
</line>
</g>
<g class="link">
<line x1="-290.8628218570719" y1="-82.07978110521212" x2="-314.98882089822047" y2="-62.405034958415854">
</line>
<line x1="-290.8628218570719" y1="-82.07978110521212" x2="-301.14461155224876" y2="-111.4642032764668">
</line>
</g>
<g class="link">
<line x1="-266.8078312709596" y1="-141.95722164590796" x2="-283.48332072539455" y2="-150.8295479987772">
</line>
</g>
<g class="link">
<line x1="-230.58954296041352" y1="-195.36308321237635" x2="-260.70412850556386" y2="-187.47187271472697">
</line>
<line x1="-230.58954296041352" y1="-195.36308321237635" x2="-227.7526831429143" y2="-226.36488464471608">
</line>
</g>
<g class="link">
<line x1="-183.85908471164672" y1="-239.86268691468834" x2="-195.3502775061246" y2="-254.85410484685633">
</line>
</g>
<g class="link">
<line x1="-128.74681556911133" y1="-273.4273744264672" x2="-136.7934915421808" y2="-290.51658532812144">
</line>
</g>
<g class="link">
<line x1="-44.173902449209365" y1="-298.97648393702474" x2="-72.00053193795772" y2="-312.9349278678611">
</line>
<line x1="-44.173902449209365" y1="-298.97648393702474" x2="-21.57285075492498" y2="-320.3856391746017">
</line>
</g>
<g class="node" transform="translate(20.3038595340472,-301.5394251055075)">
<circle r="5">
</circle>
<text dx="-8" text-anchor="end" dy=".31em" transform="rotate(3.8521400778210118)" opacity="1">1536
</text>
</g>
<g class="node" transform="translate(60.54502034846296,-296.0955455861207)">
<circle r="5">
</circle>
<text dx="-8" text-anchor="end" dy=".31em" transform="rotate(11.556420233463033)" opacity="1">7
</text>
</g>
<g class="node" transform="translate(122.02420159796537,-276.4929760940002)">
<circle r="5">
</circle>
<text dx="-8" text-anchor="end" dy=".31em" transform="rotate(23.813229571984436)" opacity="1">44
</text>
</g>
<g class="node" transform="translate(177.9405150465034,-244.2855802333068)">
<circle r="5">
</circle>
<text dx="-8" text-anchor="end" dy=".31em" transform="rotate(36.070038910505836)" opacity="1">45
</text>
</g>
<g class="node" transform="translate(225.7448347374384,-200.94163628851265)">
<circle r="5">
</circle>
<text dx="-8" text-anchor="end" dy=".31em" transform="rotate(48.326848249027236)" opacity="1">272
</text>
</g>
<g class="node" transform="translate(263.2578461800936,-148.43711809906733)">
<circle r="5">
</circle>
<text dx="-8" text-anchor="end" dy=".31em" transform="rotate(60.58365758754864)" opacity="1">276
</text>
</g>
<g class="node" transform="translate(280.7809789022279,-111.80480084345635)">
<circle r="5">
</circle>
<text dx="-8" text-anchor="end" dy=".31em" transform="rotate(68.28793774319065)" opacity="1">277
</text>
</g>
<g class="node" transform="translate(298.1162916349352,-49.64824535441872)">
<circle r="5">
</circle>
<text dx="-8" text-anchor="end" dy=".31em" transform="rotate(80.54474708171206)" opacity="1">1664
</text>
</g>
<g class="node" transform="translate(299.7361589241926,38.68470806803974)">
<circle r="5">
</circle>
<text dx="8" text-anchor="start" dy=".31em" transform="rotate(-82.64591439688716)" opacity="1">46
</text>
</g>
<g class="node" transform="translate(275.74199848864345,123.71185017785166)">
<circle r="5">
</circle>
<text dx="8" text-anchor="start" dy=".31em" transform="rotate(-65.83657587548639)" opacity="1">280
</text>
</g>
<g class="node" transform="translate(243.19344315211976,179.4302672704775)">
<circle r="5">
</circle>
<text dx="8" text-anchor="start" dy=".31em" transform="rotate(-53.579766536964996)" opacity="1">282
</text>
</g>
<g class="node" transform="translate(199.55812833181884,226.9687754331851)">
<circle r="5">
</circle>
<text dx="8" text-anchor="start" dy=".31em" transform="rotate(-41.32295719844356)" opacity="1">1696
</text>
</g>
<g class="node" transform="translate(146.8253109507123,264.16017805332604)">
<circle r="5">
</circle>
<text dx="8" text-anchor="start" dy=".31em" transform="rotate(-29.066147859922182)" opacity="1">1704
</text>
</g>
<g class="node" transform="translate(87.39898700321719,289.3089847822735)">
<circle r="5">
</circle>
<text dx="8" text-anchor="start" dy=".31em" transform="rotate(-16.809338521400775)" opacity="1">1706
</text>
</g>
<g class="node" transform="translate(1.865174681370263e-14,302.22222222222223)">
<circle r="5">
</circle>
<text dx="8" text-anchor="start" dy=".31em" transform="rotate(0)" opacity="1">10240
</text>
</g>
<g class="node" transform="translate(-64.15990703947715,295.3333335971812)">
<circle r="5">
</circle>
<text dx="8" text-anchor="start" dy=".31em" transform="rotate(12.256809338521407)" opacity="1">10752
</text>
</g>
<g class="node" transform="translate(-103.17319759206333,284.066124174579)">
<circle r="5">
</circle>
<text dx="8" text-anchor="start" dy=".31em" transform="rotate(19.961089494163446)" opacity="1">300
</text>
</g>
<g class="node" transform="translate(-140.32383798829045,267.67049164443637)">
<circle r="5">
</circle>
<text dx="8" text-anchor="start" dy=".31em" transform="rotate(27.665369649805427)" opacity="1">301
</text>
</g>
<g class="node" transform="translate(-193.95006855005784,231.77929699256174)">
<circle r="5">
</circle>
<text dx="8" text-anchor="start" dy=".31em" transform="rotate(39.92217898832686)" opacity="1">1808
</text>
</g>
<g class="node" transform="translate(-238.73445809010175,185.3216936177838)">
<circle r="5">
</circle>
<text dx="8" text-anchor="start" dy=".31em" transform="rotate(52.17898832684827)" opacity="1">1812
</text>
</g>
<g class="node" transform="translate(-261.4237129282894,151.6440368881204)">
<circle r="5">
</circle>
<text dx="8" text-anchor="start" dy=".31em" transform="rotate(59.88326848249025)" opacity="1">1813
</text>
</g>
<g class="node" transform="translate(-287.65788065171824,92.68880894638843)">
<circle r="5">
</circle>
<text dx="8" text-anchor="start" dy=".31em" transform="rotate(72.14007782101166)" opacity="1">10880
</text>
</g>
<g class="node" transform="translate(-302.1714179484422,5.54127963255393)">
<circle r="5">
</circle>
<text dx="8" text-anchor="start" dy=".31em" transform="rotate(88.94941634241246)" opacity="1">302
</text>
</g>
<g class="node" transform="translate(-290.8628218570719,-82.07978110521212)">
<circle r="5">
</circle>
<text dx="-8" text-anchor="end" dy=".31em" transform="rotate(285.75875486381324)" opacity="1">1816
</text>
</g>
<g class="node" transform="translate(-266.8078312709596,-141.95722164590796)">
<circle r="5">
</circle>
<text dx="-8" text-anchor="end" dy=".31em" transform="rotate(298.0155642023346)" opacity="1">1818
</text>
</g>
<g class="node" transform="translate(-230.58954296041352,-195.36308321237635)">
<circle r="5">
</circle>
<text dx="-8" text-anchor="end" dy=".31em" transform="rotate(310.27237354085605)" opacity="1">10912
</text>
</g>
<g class="node" transform="translate(-183.85908471164672,-239.86268691468834)">
<circle r="5">
</circle>
<text dx="-8" text-anchor="end" dy=".31em" transform="rotate(322.52918287937746)" opacity="1">10920
</text>
</g>
<g class="node" transform="translate(-128.74681556911133,-273.4273744264672)">
<circle r="5">
</circle>
<text dx="-8" text-anchor="end" dy=".31em" transform="rotate(334.78599221789887)" opacity="1">10922
</text>
</g>
<g class="node" transform="translate(-44.173902449209365,-298.97648393702474)">
<circle r="5">
</circle>
<text dx="-8" text-anchor="end" dy=".31em" transform="rotate(351.5953307392996)" opacity="1">65536
</text>
</g>
<g class="link">
<line x1="21.57285075492515" y1="-320.3856391746017" x2="22.8418419758031" y2="-339.2318532436959">
</line>
</g>
<g class="link">
<line x1="64.3290841202419" y1="-314.6015171852532" x2="68.11314789202083" y2="-333.1074887843858">
</line>
</g>
<g class="link">
<line x1="129.6507141978382" y1="-293.7737870998752" x2="112.15476462023075" y2="-320.9693268413364">
</line>
<line x1="129.6507141978382" y1="-293.7737870998752" x2="161.53346498130747" y2="-299.1771042227876">
</line>
</g>
<g class="link">
<line x1="189.06179723690985" y1="-259.55342899788843" x2="200.18307942731633" y2="-274.8212777624701">
</line>
</g>
<g class="link">
<line x1="239.85388690852827" y1="-213.5004885565447" x2="235.21866374827326" y2="-245.5039311792721">
</line>
<line x1="239.85388690852827" y1="-213.5004885565447" x2="271.1046995837066" y2="-205.18830830149216">
</line>
</g>
<g class="link">
<line x1="279.71146156634944" y1="-157.71443798025902" x2="296.1650769526053" y2="-166.99175786145074">
</line>
</g>
<g class="link">
<line x1="298.32979008361707" y1="-118.79260089617236" x2="315.87860126500635" y2="-125.78040094888838">
</line>
</g>
<g class="link">
<line x1="316.7485598621186" y1="-52.75126068906989" x2="329.88937195758666" y2="-82.29825192207315">
</line>
<line x1="316.7485598621186" y1="-52.75126068906989" x2="338.7560197308581" y2="-29.057857734293826">
</line>
</g>
<g class="link">
<line x1="320.7273223176124" y1="15.69491631028071" x2="339.593635395119" y2="16.618146681473693">
</line>
</g>
<g class="link">
<line x1="314.20246089899763" y1="66.25073013957054" x2="332.6849585989387" y2="70.14783191248645">
</line>
</g>
<g class="link">
<line x1="302.48462721516165" y1="107.7747464739167" x2="320.2778405807594" y2="114.11443744297063">
</line>
</g>
<g class="link">
<line x1="281.6184317967761" y1="154.2835200251047" x2="298.18422190246883" y2="163.35902120305207">
</line>
</g>
<g class="link">
<line x1="258.3930333491272" y1="190.6446589748823" x2="273.5926235461347" y2="201.85905067928718">
</line>
</g>
<g class="link">
<line x1="230.50270413260984" y1="223.5639708597225" x2="244.06168672864572" y2="236.7147926750003">
</line>
</g>
<g class="link">
<line x1="192.2203987976568" y1="257.22298490819617" x2="203.52748107987193" y2="272.35374872632536">
</line>
</g>
<g class="link">
<line x1="156.00189288513178" y1="280.6701891816589" x2="165.17847481955133" y2="297.1802003099918">
</line>
</g>
<g class="link">
<line x1="92.86142369091824" y1="307.3907963311656" x2="123.84739841765953" y2="316.6414721813577">
</line>
<line x1="92.86142369091824" y1="307.3907963311656" x2="72.1798954194119" y2="332.25000029682883">
</line>
</g>
<g class="link">
<line x1="25.487566225877334" y1="320.0980000670011" x2="26.986834827399534" y2="338.9272941885894">
</line>
</g>
<g class="link">
<line x1="-25.487566225877224" y1="320.0980000670011" x2="-26.986834827399413" y2="338.9272941885894">
</line>
</g>
<g class="link">
<line x1="-68.16990122944446" y1="313.791666947005" x2="-72.17989541941179" y2="332.2500002968289">
</line>
</g>
<g class="link">
<line x1="-109.62152244156728" y1="301.82025693549014" x2="-116.06984729107124" y2="319.57438969640134">
</line>
</g>
<g class="link">
<line x1="-149.09407786255858" y1="284.3998973722136" x2="-157.86431773682673" y2="301.1293030999909">
</line>
</g>
<g class="link">
<line x1="-206.07194783443643" y1="246.26550305459682" x2="-196.8087650857063" y2="277.24774117283494">
</line>
<line x1="-206.07194783443643" y1="246.26550305459682" x2="-238.2020786438986" y2="242.61032486216644">
</line>
</g>
<g class="link">
<line x1="-253.65536172073308" y1="196.90429946889526" x2="-268.57626535136444" y2="208.48690532000677">
</line>
</g>
<g class="link">
<line x1="-277.76269498630745" y1="161.12178919362793" x2="-294.1016770443255" y2="170.59954149913548">
</line>
</g>
<g class="link">
<line x1="-305.63649819245063" y1="98.4818595055377" x2="-314.3174875276979" y2="129.63223763507077">
</line>
<line x1="-305.63649819245063" y1="98.4818595055377" x2="-330.8707214956841" y2="78.25960424718129">
</line>
</g>
<g class="link">
<line x1="-321.0571315702198" y1="5.8876096095885515" x2="-338.3755129463119" y2="33.19656967700589">
</line>
<line x1="-321.0571315702198" y1="5.8876096095885515" x2="-339.3651264636542" y2="-20.768026875656915">
</line>
</g>
<g class="link">
<line x1="-314.98882089822047" y1="-62.405034958415854" x2="-333.51757506870405" y2="-66.07591936773444">
</line>
</g>
<g class="link">
<line x1="-301.14461155224876" y1="-111.4642032764668" x2="-318.85900046708696" y2="-118.02092111625898">
</line>
</g>
<g class="link">
<line x1="-283.48332072539455" y1="-150.8295479987772" x2="-300.1588101798295" y2="-159.70187435164647">
</line>
</g>
<g class="link">
<line x1="-260.70412850556386" y1="-187.47187271472697" x2="-276.0396654764794" y2="-198.49962993324033">
</line>
</g>
<g class="link">
<line x1="-227.7526831429143" y1="-226.36488464471608" x2="-241.14989979837986" y2="-239.68046609440526">
</line>
</g>
<g class="link">
<line x1="-195.3502775061246" y1="-254.85410484685633" x2="-206.84147030060254" y2="-269.84552277902435">
</line>
</g>
<g class="link">
<line x1="-136.7934915421808" y1="-290.51658532812144" x2="-168.7988025899107" y2="-295.1388897522865">
</line>
<line x1="-136.7934915421808" y1="-290.51658532812144" x2="-119.96758603224212" y2="-318.13169961762156">
</line>
</g>
<g class="link">
<line x1="-72.00053193795772" y1="-312.9349278678611" x2="-76.23585734607289" y2="-331.3428648012648">
</line>
</g>
<g class="link">
<line x1="-21.57285075492498" y1="-320.3856391746017" x2="-22.84184197580292" y2="-339.2318532436959">
</line>
</g>
<g class="node" transform="translate(21.57285075492515,-320.3856391746017)">
<circle r="5">
</circle>
<text dx="-8" text-anchor="end" dy=".31em" transform="rotate(3.8521400778210118)" opacity="1">3072
</text>
</g>
<g class="node" transform="translate(64.3290841202419,-314.6015171852532)">
<circle r="5">
</circle>
<text dx="-8" text-anchor="end" dy=".31em" transform="rotate(11.556420233463033)" opacity="1">14
</text>
</g>
<g class="node" transform="translate(129.6507141978382,-293.7737870998752)">
<circle r="5">
</circle>
<text dx="-8" text-anchor="end" dy=".31em" transform="rotate(23.813229571984436)" opacity="1">88
</text>
</g>
<g class="node" transform="translate(189.06179723690985,-259.55342899788843)">
<circle r="5">
</circle>
<text dx="-8" text-anchor="end" dy=".31em" transform="rotate(36.070038910505836)" opacity="1">90
</text>
</g>
<g class="node" transform="translate(239.85388690852827,-213.5004885565447)">
<circle r="5">
</circle>
<text dx="-8" text-anchor="end" dy=".31em" transform="rotate(48.326848249027236)" opacity="1">544
</text>
</g>
<g class="node" transform="translate(279.71146156634944,-157.71443798025902)">
<circle r="5">
</circle>
<text dx="-8" text-anchor="end" dy=".31em" transform="rotate(60.58365758754864)" opacity="1">552
</text>
</g>
<g class="node" transform="translate(298.32979008361707,-118.79260089617236)">
<circle r="5">
</circle>
<text dx="-8" text-anchor="end" dy=".31em" transform="rotate(68.28793774319065)" opacity="1">554
</text>
</g>
<g class="node" transform="translate(316.7485598621186,-52.75126068906989)">
<circle r="5">
</circle>
<text dx="-8" text-anchor="end" dy=".31em" transform="rotate(80.54474708171206)" opacity="1">3328
</text>
</g>
<g class="node" transform="translate(320.7273223176124,15.69491631028071)">
<circle r="5">
</circle>
<text dx="8" text-anchor="start" dy=".31em" transform="rotate(-87.19844357976655)" opacity="1">15
</text>
</g>
<g class="node" transform="translate(314.20246089899763,66.25073013957054)">
<circle r="5">
</circle>
<text dx="8" text-anchor="start" dy=".31em" transform="rotate(-78.09338521400778)" opacity="1">92
</text>
</g>
<g class="node" transform="translate(302.48462721516165,107.7747464739167)">
<circle r="5">
</circle>
<text dx="8" text-anchor="start" dy=".31em" transform="rotate(-70.38910505836577)" opacity="1">93
</text>
</g>
<g class="node" transform="translate(281.6184317967761,154.2835200251047)">
<circle r="5">
</circle>
<text dx="8" text-anchor="start" dy=".31em" transform="rotate(-61.284046692607006)" opacity="1">560
</text>
</g>
<g class="node" transform="translate(258.3930333491272,190.6446589748823)">
<circle r="5">
</circle>
<text dx="8" text-anchor="start" dy=".31em" transform="rotate(-53.579766536964996)" opacity="1">564
</text>
</g>
<g class="node" transform="translate(230.50270413260984,223.5639708597225)">
<circle r="5">
</circle>
<text dx="8" text-anchor="start" dy=".31em" transform="rotate(-45.87548638132296)" opacity="1">565
</text>
</g>
<g class="node" transform="translate(192.2203987976568,257.22298490819617)">
<circle r="5">
</circle>
<text dx="8" text-anchor="start" dy=".31em" transform="rotate(-36.77042801556422)" opacity="1">3392
</text>
</g>
<g class="node" transform="translate(156.00189288513178,280.6701891816589)">
<circle r="5">
</circle>
<text dx="8" text-anchor="start" dy=".31em" transform="rotate(-29.066147859922182)" opacity="1">3408
</text>
</g>
<g class="node" transform="translate(92.86142369091824,307.3907963311656)">
<circle r="5">
</circle>
<text dx="8" text-anchor="start" dy=".31em" transform="rotate(-16.809338521400775)" opacity="1">3412
</text>
</g>
<g class="node" transform="translate(25.487566225877334,320.0980000670011)">
<circle r="5">
</circle>
<text dx="8" text-anchor="start" dy=".31em" transform="rotate(-4.552529182879368)" opacity="1">3413
</text>
</g>
<g class="node" transform="translate(-25.487566225877224,320.0980000670011)">
<circle r="5">
</circle>
<text dx="8" text-anchor="start" dy=".31em" transform="rotate(4.552529182879368)" opacity="1">20480
</text>
</g>
<g class="node" transform="translate(-68.16990122944446,313.791666947005)">
<circle r="5">
</circle>
<text dx="8" text-anchor="start" dy=".31em" transform="rotate(12.256809338521407)" opacity="1">21504
</text>
</g>
<g class="node" transform="translate(-109.62152244156728,301.82025693549014)">
<circle r="5">
</circle>
<text dx="8" text-anchor="start" dy=".31em" transform="rotate(19.961089494163446)" opacity="1">600
</text>
</g>
<g class="node" transform="translate(-149.09407786255858,284.3998973722136)">
<circle r="5">
</circle>
<text dx="8" text-anchor="start" dy=".31em" transform="rotate(27.665369649805427)" opacity="1">602
</text>
</g>
<g class="node" transform="translate(-206.07194783443643,246.26550305459682)">
<circle r="5">
</circle>
<text dx="8" text-anchor="start" dy=".31em" transform="rotate(39.92217898832686)" opacity="1">3616
</text>
</g>
<g class="node" transform="translate(-253.65536172073308,196.90429946889526)">
<circle r="5">
</circle>
<text dx="8" text-anchor="start" dy=".31em" transform="rotate(52.17898832684827)" opacity="1">3624
</text>
</g>
<g class="node" transform="translate(-277.76269498630745,161.12178919362793)">
<circle r="5">
</circle>
<text dx="8" text-anchor="start" dy=".31em" transform="rotate(59.88326848249025)" opacity="1">3626
</text>
</g>
<g class="node" transform="translate(-305.63649819245063,98.4818595055377)">
<circle r="5">
</circle>
<text dx="8" text-anchor="start" dy=".31em" transform="rotate(72.14007782101166)" opacity="1">21760
</text>
</g>
<g class="node" transform="translate(-321.0571315702198,5.8876096095885515)">
<circle r="5">
</circle>
<text dx="8" text-anchor="start" dy=".31em" transform="rotate(88.94941634241246)" opacity="1">604
</text>
</g>
<g class="node" transform="translate(-314.98882089822047,-62.405034958415854)">
<circle r="5">
</circle>
<text dx="-8" text-anchor="end" dy=".31em" transform="rotate(281.20622568093387)" opacity="1">605
</text>
</g>
<g class="node" transform="translate(-301.14461155224876,-111.4642032764668)">
<circle r="5">
</circle>
<text dx="-8" text-anchor="end" dy=".31em" transform="rotate(290.3112840466926)" opacity="1">3632
</text>
</g>
<g class="node" transform="translate(-283.48332072539455,-150.8295479987772)">
<circle r="5">
</circle>
<text dx="-8" text-anchor="end" dy=".31em" transform="rotate(298.0155642023346)" opacity="1">3636
</text>
</g>
<g class="node" transform="translate(-260.70412850556386,-187.47187271472697)">
<circle r="5">
</circle>
<text dx="-8" text-anchor="end" dy=".31em" transform="rotate(305.7198443579766)" opacity="1">3637
</text>
</g>
<g class="node" transform="translate(-227.7526831429143,-226.36488464471608)">
<circle r="5">
</circle>
<text dx="-8" text-anchor="end" dy=".31em" transform="rotate(314.8249027237354)" opacity="1">21824
</text>
</g>
<g class="node" transform="translate(-195.3502775061246,-254.85410484685633)">
<circle r="5">
</circle>
<text dx="-8" text-anchor="end" dy=".31em" transform="rotate(322.52918287937746)" opacity="1">21840
</text>
</g>
<g class="node" transform="translate(-136.7934915421808,-290.51658532812144)">
<circle r="5">
</circle>
<text dx="-8" text-anchor="end" dy=".31em" transform="rotate(334.78599221789887)" opacity="1">21844
</text>
</g>
<g class="node" transform="translate(-72.00053193795772,-312.9349278678611)">
<circle r="5">
</circle>
<text dx="-8" text-anchor="end" dy=".31em" transform="rotate(347.0428015564202)" opacity="1">21845
</text>
</g>
<g class="node" transform="translate(-21.57285075492498,-320.3856391746017)">
<circle r="5">
</circle>
<text dx="-8" text-anchor="end" dy=".31em" transform="rotate(356.147859922179)" opacity="1">131072
</text>
</g>
<g class="link">
</g>
<g class="link">
</g>
<g class="link">
</g>
<g class="link">
</g>
<g class="link">
</g>
<g class="link">
</g>
<g class="link">
</g>
<g class="link">
</g>
<g class="link">
</g>
<g class="link">
</g>
<g class="link">
</g>
<g class="link">
</g>
<g class="link">
</g>
<g class="link">
</g>
<g class="link">
</g>
<g class="link">
</g>
<g class="link">
</g>
<g class="link">
</g>
<g class="link">
</g>
<g class="link">
</g>
<g class="link">
</g>
<g class="link">
</g>
<g class="link">
</g>
<g class="link">
</g>
<g class="link">
</g>
<g class="link">
</g>
<g class="link">
</g>
<g class="link">
</g>
<g class="link">
</g>
<g class="link">
</g>
<g class="link">
</g>
<g class="link">
</g>
<g class="link">
</g>
<g class="link">
</g>
<g class="link">
</g>
<g class="link">
</g>
<g class="link">
</g>
<g class="link">
</g>
<g class="link">
</g>
<g class="link">
</g>
<g class="link">
</g>
<g class="link">
</g>
<g class="link">
</g>
<g class="link">
</g>
<g class="node" transform="translate(22.8418419758031,-339.2318532436959)">
<circle r="5">
</circle>
<text dx="-8" text-anchor="end" dy=".31em" transform="rotate(3.8521400778210118)" opacity="1">6144
</text>
</g>
<g class="node" transform="translate(68.11314789202083,-333.1074887843858)">
<circle r="5">
</circle>
<text dx="-8" text-anchor="end" dy=".31em" transform="rotate(11.556420233463033)" opacity="1">28
</text>
</g>
<g class="node" transform="translate(112.15476462023075,-320.9693268413364)">
<circle r="5">
</circle>
<text dx="-8" text-anchor="end" dy=".31em" transform="rotate(19.260700389105057)" opacity="1">29
</text>
</g>
<g class="node" transform="translate(161.53346498130747,-299.1771042227876)">
<circle r="5">
</circle>
<text dx="-8" text-anchor="end" dy=".31em" transform="rotate(28.365758754863812)" opacity="1">176
</text>
</g>
<g class="node" transform="translate(200.18307942731633,-274.8212777624701)">
<circle r="5">
</circle>
<text dx="-8" text-anchor="end" dy=".31em" transform="rotate(36.070038910505836)" opacity="1">180
</text>
</g>
<g class="node" transform="translate(235.21866374827326,-245.5039311792721)">
<circle r="5">
</circle>
<text dx="-8" text-anchor="end" dy=".31em" transform="rotate(43.77431906614786)" opacity="1">181
</text>
</g>
<g class="node" transform="translate(271.1046995837066,-205.18830830149216)">
<circle r="5">
</circle>
<text dx="-8" text-anchor="end" dy=".31em" transform="rotate(52.87937743190662)" opacity="1">1088
</text>
</g>
<g class="node" transform="translate(296.1650769526053,-166.99175786145074)">
<circle r="5">
</circle>
<text dx="-8" text-anchor="end" dy=".31em" transform="rotate(60.58365758754864)" opacity="1">1104
</text>
</g>
<g class="node" transform="translate(315.87860126500635,-125.78040094888838)">
<circle r="5">
</circle>
<text dx="-8" text-anchor="end" dy=".31em" transform="rotate(68.28793774319065)" opacity="1">1108
</text>
</g>
<g class="node" transform="translate(329.88937195758666,-82.29825192207315)">
<circle r="5">
</circle>
<text dx="-8" text-anchor="end" dy=".31em" transform="rotate(75.99221789883268)" opacity="1">1109
</text>
</g>
<g class="node" transform="translate(338.7560197308581,-29.057857734293826)">
<circle r="5">
</circle>
<text dx="-8" text-anchor="end" dy=".31em" transform="rotate(85.09727626459144)" opacity="1">6656
</text>
</g>
<g class="node" transform="translate(339.593635395119,16.618146681473693)">
<circle r="5">
</circle>
<text dx="8" text-anchor="start" dy=".31em" transform="rotate(-87.19844357976655)" opacity="1">30
</text>
</g>
<g class="node" transform="translate(332.6849585989387,70.14783191248645)">
<circle r="5">
</circle>
<text dx="8" text-anchor="start" dy=".31em" transform="rotate(-78.09338521400778)" opacity="1">184
</text>
</g>
<g class="node" transform="translate(320.2778405807594,114.11443744297063)">
<circle r="5">
</circle>
<text dx="8" text-anchor="start" dy=".31em" transform="rotate(-70.38910505836577)" opacity="1">186
</text>
</g>
<g class="node" transform="translate(298.18422190246883,163.35902120305207)">
<circle r="5">
</circle>
<text dx="8" text-anchor="start" dy=".31em" transform="rotate(-61.284046692607006)" opacity="1">1120
</text>
</g>
<g class="node" transform="translate(273.5926235461347,201.85905067928718)">
<circle r="5">
</circle>
<text dx="8" text-anchor="start" dy=".31em" transform="rotate(-53.579766536964996)" opacity="1">1128
</text>
</g>
<g class="node" transform="translate(244.06168672864572,236.7147926750003)">
<circle r="5">
</circle>
<text dx="8" text-anchor="start" dy=".31em" transform="rotate(-45.87548638132296)" opacity="1">1130
</text>
</g>
<g class="node" transform="translate(203.52748107987193,272.35374872632536)">
<circle r="5">
</circle>
<text dx="8" text-anchor="start" dy=".31em" transform="rotate(-36.77042801556422)" opacity="1">6784
</text>
</g>
<g class="node" transform="translate(165.17847481955133,297.1802003099918)">
<circle r="5">
</circle>
<text dx="8" text-anchor="start" dy=".31em" transform="rotate(-29.066147859922182)" opacity="1">6816
</text>
</g>
<g class="node" transform="translate(123.84739841765953,316.6414721813577)">
<circle r="5">
</circle>
<text dx="8" text-anchor="start" dy=".31em" transform="rotate(-21.361867704280172)" opacity="1">1137
</text>
</g>
<g class="node" transform="translate(72.1798954194119,332.25000029682883)">
<circle r="5">
</circle>
<text dx="8" text-anchor="start" dy=".31em" transform="rotate(-12.256809338521407)" opacity="1">6824
</text>
</g>
<g class="node" transform="translate(26.986834827399534,338.9272941885894)">
<circle r="5">
</circle>
<text dx="8" text-anchor="start" dy=".31em" transform="rotate(-4.552529182879368)" opacity="1">6826
</text>
</g>
<g class="node" transform="translate(-26.986834827399413,338.9272941885894)">
<circle r="5">
</circle>
<text dx="8" text-anchor="start" dy=".31em" transform="rotate(4.552529182879368)" opacity="1">40960
</text>
</g>
<g class="node" transform="translate(-72.17989541941179,332.2500002968289)">
<circle r="5">
</circle>
<text dx="8" text-anchor="start" dy=".31em" transform="rotate(12.256809338521407)" opacity="1">43008
</text>
</g>
<g class="node" transform="translate(-116.06984729107124,319.57438969640134)">
<circle r="5">
</circle>
<text dx="8" text-anchor="start" dy=".31em" transform="rotate(19.961089494163446)" opacity="1">1200
</text>
</g>
<g class="node" transform="translate(-157.86431773682673,301.1293030999909)">
<circle r="5">
</circle>
<text dx="8" text-anchor="start" dy=".31em" transform="rotate(27.665369649805427)" opacity="1">1204
</text>
</g>
<g class="node" transform="translate(-196.8087650857063,277.24774117283494)">
<circle r="5">
</circle>
<text dx="8" text-anchor="start" dy=".31em" transform="rotate(35.369649805447466)" opacity="1">1205
</text>
</g>
<g class="node" transform="translate(-238.2020786438986,242.61032486216644)">
<circle r="5">
</circle>
<text dx="8" text-anchor="start" dy=".31em" transform="rotate(44.47470817120623)" opacity="1">7232
</text>
</g>
<g class="node" transform="translate(-268.57626535136444,208.48690532000677)">
<circle r="5">
</circle>
<text dx="8" text-anchor="start" dy=".31em" transform="rotate(52.17898832684827)" opacity="1">7248
</text>
</g>
<g class="node" transform="translate(-294.1016770443255,170.59954149913548)">
<circle r="5">
</circle>
<text dx="8" text-anchor="start" dy=".31em" transform="rotate(59.88326848249025)" opacity="1">7252
</text>
</g>
<g class="node" transform="translate(-314.3174875276979,129.63223763507077)">
<circle r="5">
</circle>
<text dx="8" text-anchor="start" dy=".31em" transform="rotate(67.58754863813229)" opacity="1">7253
</text>
</g>
<g class="node" transform="translate(-330.8707214956841,78.25960424718129)">
<circle r="5">
</circle>
<text dx="8" text-anchor="start" dy=".31em" transform="rotate(76.69260700389106)" opacity="1">43520
</text>
</g>
<g class="node" transform="translate(-338.3755129463119,33.19656967700589)">
<circle r="5">
</circle>
<text dx="8" text-anchor="start" dy=".31em" transform="rotate(84.3968871595331)" opacity="1">201
</text>
</g>
<g class="node" transform="translate(-339.3651264636542,-20.768026875656915)">
<circle r="5">
</circle>
<text dx="-8" text-anchor="end" dy=".31em" transform="rotate(273.50194552529183)" opacity="1">1208
</text>
</g>
<g class="node" transform="translate(-333.51757506870405,-66.07591936773444)">
<circle r="5">
</circle>
<text dx="-8" text-anchor="end" dy=".31em" transform="rotate(281.20622568093387)" opacity="1">1210
</text>
</g>
<g class="node" transform="translate(-318.85900046708696,-118.02092111625898)">
<circle r="5">
</circle>
<text dx="-8" text-anchor="end" dy=".31em" transform="rotate(290.3112840466926)" opacity="1">7264
</text>
</g>
<g class="node" transform="translate(-300.1588101798295,-159.70187435164647)">
<circle r="5">
</circle>
<text dx="-8" text-anchor="end" dy=".31em" transform="rotate(298.0155642023346)" opacity="1">7272
</text>
</g>
<g class="node" transform="translate(-276.0396654764794,-198.49962993324033)">
<circle r="5">
</circle>
<text dx="-8" text-anchor="end" dy=".31em" transform="rotate(305.7198443579766)" opacity="1">7274
</text>
</g>
<g class="node" transform="translate(-241.14989979837986,-239.68046609440526)">
<circle r="5">
</circle>
<text dx="-8" text-anchor="end" dy=".31em" transform="rotate(314.8249027237354)" opacity="1">43648
</text>
</g>
<g class="node" transform="translate(-206.84147030060254,-269.84552277902435)">
<circle r="5">
</circle>
<text dx="-8" text-anchor="end" dy=".31em" transform="rotate(322.52918287937746)" opacity="1">43680
</text>
</g>
<g class="node" transform="translate(-168.7988025899107,-295.1388897522865)">
<circle r="5">
</circle>
<text dx="-8" text-anchor="end" dy=".31em" transform="rotate(330.23346303501944)" opacity="1">7281
</text>
</g>
<g class="node" transform="translate(-119.96758603224212,-318.13169961762156)">
<circle r="5">
</circle>
<text dx="-8" text-anchor="end" dy=".31em" transform="rotate(339.3385214007782)" opacity="1">43688
</text>
</g>
<g class="node" transform="translate(-76.23585734607289,-331.3428648012648)">
<circle r="5">
</circle>
<text dx="-8" text-anchor="end" dy=".31em" transform="rotate(347.0428015564202)" opacity="1">43690
</text>
</g>
<g class="node" transform="translate(-22.84184197580292,-339.2318532436959)">
<circle r="5">
</circle>
<text dx="-8" text-anchor="end" dy=".31em" transform="rotate(356.147859922179)" opacity="1">262144
</text>
</g>
</g>
</svg>

